<svg xmlns="http://www.w3.org/2000/svg" viewBox="0 0 800 500" font-family="-apple-system, BlinkMacSystemFont, 'Segoe UI', sans-serif">
  <rect width="800" height="500" fill="#f5f7fa"/>
  <rect x="0" y="0" width="800" height="56" fill="#ffffff" stroke="#e3e8ef"/>
  <text x="24" y="36" font-size="18" font-weight="700" fill="#0f172a">⚡ GridPulse</text>
  <text x="640" y="36" font-size="14" fill="#475569">Now · By region · Status · API</text>

  <text x="24" y="100" font-size="26" font-weight="700" fill="#0f172a">Right now in the UK</text>
  <text x="24" y="124" font-size="13" fill="#64748b">Live grid generation, carbon intensity, and Agile prices. Refreshes every 60s.</text>

  <rect x="24" y="150" width="300" height="170" rx="8" fill="#ffffff" stroke="#e3e8ef"/>
  <text x="40" y="178" font-size="13" font-weight="600" fill="#475569">CARBON INTENSITY · NATIONAL</text>
  <text x="40" y="232" font-size="48" font-weight="800" fill="#0f172a">142</text>
  <text x="148" y="232" font-size="14" fill="#64748b">gCO₂/kWh</text>
  <rect x="40" y="250" width="74" height="22" rx="11" fill="#d1fae5"/>
  <text x="56" y="265" font-size="11" font-weight="700" fill="#065f46">MODERATE</text>
  <text x="40" y="300" font-size="12" fill="#64748b">Settlement period 23 · 11:30 UTC</text>

  <rect x="340" y="150" width="436" height="170" rx="8" fill="#ffffff" stroke="#e3e8ef"/>
  <text x="356" y="178" font-size="13" font-weight="600" fill="#475569">GENERATION MIX</text>
  <circle cx="430" cy="240" r="50" fill="none" stroke="#10b981" stroke-width="18" stroke-dasharray="120 200"/>
  <circle cx="430" cy="240" r="50" fill="none" stroke="#3b82f6" stroke-width="18" stroke-dasharray="60 260" stroke-dashoffset="-120"/>
  <circle cx="430" cy="240" r="50" fill="none" stroke="#f59e0b" stroke-width="18" stroke-dasharray="40 280" stroke-dashoffset="-180"/>
  <circle cx="430" cy="240" r="50" fill="none" stroke="#94a3b8" stroke-width="18" stroke-dasharray="30 290" stroke-dashoffset="-220"/>
  <g font-size="12" fill="#334155">
    <rect x="520" y="180" width="10" height="10" fill="#10b981"/><text x="538" y="190">Wind 38%</text>
    <rect x="520" y="200" width="10" height="10" fill="#3b82f6"/><text x="538" y="210">Gas 19%</text>
    <rect x="520" y="220" width="10" height="10" fill="#f59e0b"/><text x="538" y="230">Nuclear 13%</text>
    <rect x="520" y="240" width="10" height="10" fill="#94a3b8"/><text x="538" y="250">Other 30%</text>
  </g>

  <rect x="24" y="340" width="752" height="130" rx="8" fill="#ffffff" stroke="#e3e8ef"/>
  <text x="40" y="368" font-size="13" font-weight="600" fill="#475569">BEST SLOTS · NEXT 24H · LONDON</text>
  <g font-size="12" fill="#334155">
    <text x="40" y="398">02:30–03:00</text><rect x="160" y="388" width="120" height="14" fill="#10b981"/><text x="290" y="398" fill="#0f172a" font-weight="600">8.4p / 95g</text>
    <text x="40" y="420">03:00–03:30</text><rect x="160" y="410" width="138" height="14" fill="#10b981"/><text x="308" y="420" fill="#0f172a" font-weight="600">9.1p / 102g</text>
    <text x="40" y="442">03:30–04:00</text><rect x="160" y="432" width="142" height="14" fill="#10b981"/><text x="312" y="442" fill="#0f172a" font-weight="600">9.3p / 108g</text>
  </g>
  <text x="500" y="442" font-size="11" font-style="italic" fill="#64748b">Placeholder — replace with real screenshot</text>
</svg>
