<svg xmlns="http://www.w3.org/2000/svg" viewBox="0 0 800 500" font-family="-apple-system,BlinkMacSystemFont,sans-serif">
  <rect width="800" height="500" fill="#f5f7fa"/>
  <rect width="800" height="56" fill="#fff" stroke="#e3e8ef"/>
  <text x="24" y="36" font-size="18" font-weight="700" fill="#0f172a">⚡ GridPulse</text>
  <text x="24" y="100" font-size="26" font-weight="700" fill="#0f172a">London</text>
  <text x="24" y="124" font-size="13" fill="#64748b">Live regional carbon intensity, mix, and Agile prices.</text>
  <rect x="24" y="140" width="220" height="32" rx="4" fill="#fff" stroke="#e3e8ef"/>
  <text x="40" y="160" font-size="13" fill="#0f172a">Region: London ▾</text>
  <rect x="24" y="190" width="375" height="170" rx="8" fill="#fff" stroke="#e3e8ef"/>
  <text x="40" y="218" font-size="13" font-weight="600" fill="#475569">REGIONAL CARBON · LONDON</text>
  <text x="40" y="272" font-size="48" font-weight="800" fill="#0f172a">158</text>
  <text x="148" y="272" font-size="14" fill="#64748b">gCO₂/kWh</text>
  <text x="40" y="318" font-size="12" fill="#64748b">DNO region 12 · settlement period 23</text>
  <rect x="411" y="190" width="365" height="170" rx="8" fill="#fff" stroke="#e3e8ef"/>
  <text x="427" y="218" font-size="13" font-weight="600" fill="#475569">AGILE · LONDON</text>
  <text x="427" y="272" font-size="48" font-weight="800" fill="#0f172a">21.4p</text>
  <text x="555" y="272" font-size="14" fill="#64748b">/ kWh</text>
  <text x="427" y="318" font-size="12" fill="#64748b">Next half-hour: 18.9p · cheapest tonight: 8.4p @ 02:30</text>
  <rect x="24" y="380" width="752" height="100" rx="8" fill="#fff" stroke="#e3e8ef"/>
  <text x="40" y="408" font-size="13" font-weight="600" fill="#475569">CARBON TREND · LAST 24H</text>
  <polyline fill="none" stroke="#10b981" stroke-width="2" points="40,460 110,440 180,420 250,448 320,438 390,425 460,410 530,395 600,422 670,440 740,455"/>
  <text x="600" y="470" font-size="11" font-style="italic" fill="#64748b">Placeholder — replace with real screenshot</text>
</svg>
